<?xml version="1.0" standalone="no"?>
<!DOCTYPE svg PUBLIC "-//W3C//DTD SVG 20010904//EN"
 "http://www.w3.org/TR/2001/REC-SVG-20010904/DTD/svg10.dtd">
<svg version="1.0" xmlns="http://www.w3.org/2000/svg"
 width="200.000000pt" height="200.000000pt" viewBox="0 0 200.000000 200.000000"
 preserveAspectRatio="xMidYMid meet">
<metadata>
Created by potrace 1.14, written by Peter Selinger 2001-2017
</metadata>
<g transform="translate(0.000000,200.000000) scale(0.100000,-0.100000)"
fill="#000000" stroke="none">
<path d="M1520 1595 c-222 -222 -413 -405 -424 -407 -12 -2 -30 -19 -41 -38
-11 -19 -80 -95 -153 -170 l-133 -135 20 52 c11 29 27 69 36 89 32 77 12 124
-54 124 -54 0 -70 -22 -140 -194 -64 -156 -70 -188 -47 -222 14 -19 -1 -37
-285 -320 -286 -286 -299 -301 -299 -336 l0 -38 1000 0 1000 0 0 1000 0 1000
-38 0 c-36 0 -53 -15 -442 -405z"/>
<path d="M533 1433 c-22 -25 -243 -549 -279 -661 -12 -38 -12 -48 1 -72 19
-37 30 -40 140 -40 108 0 140 11 155 53 17 50 -7 75 -74 79 l-55 3 120 295
c65 162 119 304 119 315 0 57 -85 75 -127 28z"/>
<path d="M769 1277 c-44 -34 -47 -103 -6 -132 30 -21 90 -19 118 4 33 27 33
95 0 122 -26 22 -88 25 -112 6z"/>
</g>
</svg>
